<svg width="251" height="50" viewBox="0 0 251 50" fill="none" xmlns="http://www.w3.org/2000/svg">
<path d="M107.307 22.0488L103.685 38.6822H94.2486L97.8709 22.0488C98.1548 20.7414 97.9901 20.5004 96.6531 20.5004H93.2465C91.9179 20.5004 91.6397 20.7414 91.3587 22.0155C91.3587 22.0155 91.3587 22.0377 91.3587 22.0488L87.7364 38.6822H78.2916L81.9168 22.0488C82.2007 20.7414 82.036 20.5004 80.6961 20.5004H77.2895C75.9496 20.5004 75.6799 20.7441 75.396 22.0488L71.7709 38.6822H62.3346L67.8959 13.149H75.5607L76.7757 15.3428C77.4746 14.6247 78.3207 14.0583 79.2588 13.6803C80.1969 13.3023 81.206 13.1213 82.2205 13.149H84.1765C87.8669 13.149 90.3566 14.714 91.248 17.3593C92.8973 14.4176 95.2876 13.149 98.1747 13.149H100.133C105.678 13.149 108.497 16.6419 107.307 22.0488Z" fill="#5965E0"/>
<path d="M136.084 22.0487L134.4 29.7824C133.222 35.1893 128.879 38.6822 123.329 38.6822H116.181C110.639 38.6822 107.821 35.1865 108.999 29.7796L110.682 22.0487C111.857 16.6418 116.201 13.1489 121.753 13.1489H128.913C134.443 13.1489 137.265 16.6418 136.084 22.0487ZM126.639 22.0487C126.923 20.7413 126.758 20.5003 125.421 20.5003H122.015C120.675 20.5003 120.405 20.7441 120.121 22.0487L118.435 29.7796C118.151 31.087 118.318 31.328 119.656 31.328H123.062C124.399 31.328 124.672 31.0842 124.956 29.7796L126.639 22.0487Z" fill="#5965E0"/>
<path d="M194.975 20.0156C194.63 21.4671 193.796 22.764 192.607 23.6996L187.801 27.5775C186.649 28.523 185.199 29.0548 183.694 29.0844H177.039L176.889 29.7685C176.605 31.0759 176.77 31.3169 178.11 31.3169H192.508L190.907 38.6711H174.624C169.082 38.6711 166.263 35.1754 167.441 29.7685L169.125 22.0377C170.303 16.6308 174.646 13.1379 180.196 13.1379H187.361C192.889 13.149 195.747 16.459 194.975 20.0156ZM185.09 22.0487C185.374 20.7413 185.21 20.5003 183.87 20.5003H180.463C179.129 20.4976 178.845 20.7441 178.561 22.0487L177.993 24.7106H183.614C183.866 24.7005 184.108 24.6103 184.303 24.4538C184.497 24.2973 184.634 24.0831 184.693 23.8437L185.09 22.0487Z" fill="#5965E0"/>
<path d="M205.583 34.3472C205.061 36.7432 203.122 38.6849 200.19 38.6849C197.257 38.6849 196.167 36.7459 196.689 34.3472C197.212 31.9484 199.151 30.0122 202.083 30.0122C205.016 30.0122 206.097 31.9484 205.583 34.3472Z" fill="#5965E0"/>
<path d="M225.829 13.1489L220.254 38.6794H210.82L214.795 20.4975H210.085L211.689 13.1461L225.829 13.1489ZM218.823 8.38186C217.188 6.60911 217.687 3.56772 219.933 1.59276C222.178 -0.382197 225.327 -0.542853 226.97 1.23267C228.614 3.0082 228.106 6.04958 225.86 8.02454C223.615 9.9995 220.461 10.1602 218.823 8.38186Z" fill="#5965E0"/>
<path d="M240.972 16.8246L238.15 29.7796C237.866 31.087 238.031 31.328 239.368 31.328H245.236L243.635 38.6822H235.888C230.346 38.6822 227.525 35.1865 228.703 29.7796L231.524 16.8246H227.956L229.557 9.47048H233.134L234.446 3.44865H243.89L242.579 9.47048H250.005L248.395 16.8246H240.972Z" fill="#5965E0"/>
<path d="M25.5088 3.74505H37.4829L27.5215 50.0001H15.5474L25.5088 3.74505Z" fill="#5965E0"/>
<path d="M43.0785 3.74505H55.0526L47.2913 39.9868H35.3143L43.0785 3.74505Z" fill="#5965E0"/>
<path d="M7.76366 3.74505H19.7378L11.9765 39.9868H-0.000488281L7.76366 3.74505Z" fill="#5965E0"/>
<path d="M171.027 13.1489L153.531 38.6822H143.879L137.497 13.1489H147.833L150.613 29.9153L160.69 13.1628L171.027 13.1489Z" fill="#5965E0"/>
</svg>
